<mxfile host="app.diagrams.net" modified="2021-07-29T15:36:38.438Z" agent="5.0 (Windows NT 10.0; Win64; x64) AppleWebKit/537.36 (KHTML, like Gecko) Chrome/92.0.4515.107 Safari/537.36" etag="T3CVahsZGJzY5aHQQHoc" version="14.9.3" type="github">
  <diagram id="bzIk-tangXGTs0sgv4Rs" name="Page-1">
    <mxGraphModel dx="1422" dy="762" grid="1" gridSize="10" guides="1" tooltips="1" connect="1" arrows="1" fold="1" page="1" pageScale="1" pageWidth="827" pageHeight="1169" math="0" shadow="0">
      <root>
        <mxCell id="0" />
        <mxCell id="1" parent="0" />
        <mxCell id="ABVZA5mV72_8CFqZy-lV-8" value="" style="edgeStyle=orthogonalEdgeStyle;rounded=0;orthogonalLoop=1;jettySize=auto;html=1;" edge="1" parent="1" source="ABVZA5mV72_8CFqZy-lV-1" target="ABVZA5mV72_8CFqZy-lV-2">
          <mxGeometry relative="1" as="geometry" />
        </mxCell>
        <mxCell id="ABVZA5mV72_8CFqZy-lV-1" value="başlangıç" style="ellipse;whiteSpace=wrap;html=1;" vertex="1" parent="1">
          <mxGeometry x="370" y="20" width="120" height="110" as="geometry" />
        </mxCell>
        <mxCell id="ABVZA5mV72_8CFqZy-lV-9" value="" style="edgeStyle=orthogonalEdgeStyle;rounded=0;orthogonalLoop=1;jettySize=auto;html=1;" edge="1" parent="1" source="ABVZA5mV72_8CFqZy-lV-2" target="ABVZA5mV72_8CFqZy-lV-3">
          <mxGeometry relative="1" as="geometry" />
        </mxCell>
        <mxCell id="ABVZA5mV72_8CFqZy-lV-2" value="sayi1" style="shape=parallelogram;perimeter=parallelogramPerimeter;whiteSpace=wrap;html=1;fixedSize=1;" vertex="1" parent="1">
          <mxGeometry x="370" y="160" width="120" height="60" as="geometry" />
        </mxCell>
        <mxCell id="ABVZA5mV72_8CFqZy-lV-15" value="" style="edgeStyle=orthogonalEdgeStyle;rounded=0;orthogonalLoop=1;jettySize=auto;html=1;" edge="1" parent="1" source="ABVZA5mV72_8CFqZy-lV-3" target="ABVZA5mV72_8CFqZy-lV-12">
          <mxGeometry relative="1" as="geometry" />
        </mxCell>
        <mxCell id="ABVZA5mV72_8CFqZy-lV-3" value="sayi2" style="shape=parallelogram;perimeter=parallelogramPerimeter;whiteSpace=wrap;html=1;fixedSize=1;" vertex="1" parent="1">
          <mxGeometry x="370" y="270" width="120" height="60" as="geometry" />
        </mxCell>
        <mxCell id="ABVZA5mV72_8CFqZy-lV-16" value="" style="edgeStyle=orthogonalEdgeStyle;rounded=0;orthogonalLoop=1;jettySize=auto;html=1;" edge="1" parent="1" source="ABVZA5mV72_8CFqZy-lV-12" target="ABVZA5mV72_8CFqZy-lV-13">
          <mxGeometry relative="1" as="geometry" />
        </mxCell>
        <mxCell id="ABVZA5mV72_8CFqZy-lV-12" value="sayi1+sayi2" style="shape=document;whiteSpace=wrap;html=1;boundedLbl=1;" vertex="1" parent="1">
          <mxGeometry x="370" y="380" width="120" height="80" as="geometry" />
        </mxCell>
        <mxCell id="ABVZA5mV72_8CFqZy-lV-13" value="sonuç" style="ellipse;whiteSpace=wrap;html=1;" vertex="1" parent="1">
          <mxGeometry x="370" y="480" width="120" height="80" as="geometry" />
        </mxCell>
      </root>
    </mxGraphModel>
  </diagram>
</mxfile>
